{"title":"Lila.And.Eve.2015.720p.WEB-DL.XviD.AC3-RARBG","uid":12133852,"size":3464729469,"categoryP":"video","categoryS":"hd___movies","magnet":"?xt=urn:btih:067cb4e82e1d4dc2140142f0ede7c23bc45ab1d8&amp;dn=Lila.And.Eve.2015.720p.WEB-DL.XviD.AC3-RARBG&amp;tr=udp%3A%2F%2Ftracker.openbittorrent.com%3A80&amp;tr=udp%3A%2F%2Fopen.demonii.com%3A1337&amp;tr=udp%3A%2F%2Ftracker.coppersurfer.tk%3A6969&amp;tr=udp%3A%2F%2Fexodus.desync.com%3A6969","seeders":9,"leechers":4,"uploader":"vickey1992","files":5,"time":1437134019,"description":"Video\nID                                       : 0\nFormat                                   : MPEG-4 Visual\nFormat profile                           : Simple@L5\nFormat settings, BVOP                    : No\nFormat settings, QPel                    : No\nFormat settings, GMC                     : No warppoints\nFormat settings, Matrix                  : Default (H.263)\nCodec ID                                 : XVID\nCodec ID/Hint                            : XviD\nDuration                                 : 1h 34mn\nBit rate                                 : 4 508 Kbps\nWidth                                    : 1 280 pixels\nHeight                                   : 690 pixels\nDisplay aspect ratio                     : 1.85:1\nFrame rate                               : 23.976 fps\nColor space                              : YUV\nChroma subsampling                       : 4:2:0\nBit depth                                : 8 bits\nScan type                                : Progressive\nCompression mode                         : Lossy\nBits/(Pixel*Frame)                       : 0.213\nStream size                              : 2.97 GiB (92%)\nWriting library                          : Lavc56.13.100\n\nAudio\nID                                       : 1\nFormat                                   : AC-3\nFormat/Info                              : Audio Coding 3\nMode extension                           : CM (complete main)\nFormat settings, Endianness              : Big\nCodec ID                                 : 2000\nDuration                                 : 1h 34mn\nBit rate mode                            : Constant\nBit rate                                 : 384 Kbps\nChannel(s)                               : 6 channels\nChannel positions                        : Front: L C R, Side: L R, LFE\nSampling rate                            : 48.0 KHz\nBit depth                                : 16 bits\nCompression mode                         : Lossy\nStream size                              : 259 MiB (8%)\nAlignment                                : Aligned on interleaves\nInterleave, duration                     : 42 ms (1.00 video frame)\nInterleave, preload duration             : 512 ms","torrent":{"xt":"urn:btih:067cb4e82e1d4dc2140142f0ede7c23bc45ab1d8","amp;dn":"Lila.And.Eve.2015.720p.WEB-DL.XviD.AC3-RARBG","amp;tr":["udp%3A%2F%2Ftracker.openbittorrent.com%3A80","udp%3A%2F%2Fopen.demonii.com%3A1337","udp%3A%2F%2Ftracker.coppersurfer.tk%3A6969","udp%3A%2F%2Fexodus.desync.com%3A6969"],"infoHash":"067cb4e82e1d4dc2140142f0ede7c23bc45ab1d8","infoHashBuffer":{"type":"Buffer","data":[6,124,180,232,46,29,77,194,20,1,66,240,237,231,194,59,196,90,177,216]},"announce":[],"urlList":[]}}